<?xml version="1.0" standalone="no"?>
<!DOCTYPE svg PUBLIC "-//W3C//DTD SVG 20010904//EN"
 "http://www.w3.org/TR/2001/REC-SVG-20010904/DTD/svg10.dtd">
<svg version="1.0" xmlns="http://www.w3.org/2000/svg"
 width="124.000000pt" height="124.000000pt" viewBox="0 0 124.000000 124.000000"
 preserveAspectRatio="xMidYMid meet">
<metadata>
Created by potrace 1.14, written by Peter Selinger 2001-2017
</metadata>
<g transform="translate(0.000000,124.000000) scale(0.100000,-0.100000)"
fill="#000000" stroke="none">
<path d="M182 906 c2 -14 17 -18 78 -20 59 -2 86 -8 120 -27 92 -50 139 -156
127 -285 -8 -83 -32 -138 -78 -178 -46 -39 -97 -56 -170 -56 l-54 0 1 215 c1
200 -5 256 -24 206 -5 -16 -8 -314 -3 -428 1 -22 5 -23 69 -23 77 0 132 13
176 42 139 91 155 366 30 492 -49 48 -101 68 -192 74 -75 4 -84 3 -80 -12z"/>
<path d="M700 780 c0 -109 3 -141 13 -137 17 5 17 269 0 275 -10 3 -13 -29
-13 -138z"/>
<path d="M878 763 c-198 -252 -179 -218 -176 -314 4 -108 22 -110 26 -4 l3 81
140 178 c155 197 167 216 145 216 -8 0 -70 -71 -138 -157z"/>
<path d="M998 778 c-62 -79 -114 -146 -116 -150 -6 -12 224 -318 239 -318 24
0 7 30 -92 159 -60 79 -109 148 -109 152 0 5 47 69 105 142 98 123 118 157 96
157 -5 0 -60 -64 -123 -142z"/>
<path d="M117 842 c-15 -3 -17 -29 -17 -269 0 -207 3 -264 13 -261 9 4 13 65
15 252 l2 248 98 -4 c83 -3 102 -6 131 -27 91 -65 97 -252 9 -326 -16 -14 -36
-25 -43 -25 -17 0 -28 -17 -20 -29 10 -17 63 9 99 49 39 44 56 95 57 173 2 93
-55 184 -129 208 -33 11 -178 18 -215 11z"/>
<path d="M779 838 c-1 -1 -3 -24 -5 -50 -3 -47 11 -73 26 -48 12 20 6 93 -7
98 -7 2 -13 2 -14 0z"/>
<path d="M804 533 c-26 -34 -29 -45 -29 -126 -1 -81 6 -109 23 -92 3 3 7 44 7
90 1 78 13 115 35 115 4 0 43 -46 85 -102 43 -57 80 -105 82 -107 2 -3 8 0 14
6 8 8 -14 44 -81 132 -51 67 -96 121 -100 121 -4 0 -20 -17 -36 -37z"/>
<path d="M255 410 c-4 -6 -3 -16 3 -22 6 -6 12 -6 17 2 4 6 3 16 -3 22 -6 6
-12 6 -17 -2z"/>
<path d="M700 329 c0 -12 5 -19 12 -17 18 6 20 25 3 31 -10 5 -15 0 -15 -14z"/>
</g>
</svg>
